<svg width="1000" height="1200" viewBox="0 0 1000 1200" fill="none" xmlns="http://www.w3.org/2000/svg">
  <rect width="1000" height="1200" rx="52" fill="#FFF8F4"/>
  <circle cx="815" cy="215" r="165" fill="#F8D9DD"/>
  <circle cx="180" cy="1000" r="235" fill="#EFD9A7" fill-opacity="0.55"/>
  <rect x="110" y="108" width="780" height="984" rx="40" fill="white" fill-opacity="0.82"/>
  <path d="M500 338C530 286 612 286 642 338C684 412 616 486 500 578C384 486 316 412 358 338C388 286 470 286 500 338Z" fill="#D86D92"/>
  <path d="M500 416C514 393 548 393 562 416C582 451 554 486 500 529C446 486 418 451 438 416C452 393 486 393 500 416Z" fill="#F8D9DD"/>
  <text x="500" y="835" text-anchor="middle" fill="#C59B45" font-size="54" font-family="Georgia, serif">Mother’s Day Special Box</text>
</svg>
